<svg width="706" height="382" viewBox="0 0 706 382" fill="none" xmlns="http://www.w3.org/2000/svg">
<g clip-path="url(#clip0)">
<path d="M706 382C669.622 377.993 634.637 374.539 601.044 371.637L614.328 355.471C609.85 354.476 590.174 363.692 590.174 363.692L607.611 316.693C585.089 318.325 573.629 366.336 573.629 366.336L548.469 350.003L560.648 368.309C457.836 360.328 369.043 357.193 294.357 356.831L305.726 342.995C301.249 342 281.573 351.216 281.573 351.216L299.01 304.217C276.488 305.849 265.027 353.859 265.027 353.859L239.868 337.526L252.767 356.916C190.155 357.487 139.096 360 99.6855 362.93C111.186 341.355 150.245 320.932 150.245 320.932C120.418 326.414 104.771 335.719 96.5942 344.416C95.9691 317.724 100.174 268.256 131.413 213.581C131.413 213.581 69.7479 297.834 77.6032 354.56L78.5421 364.631C26.277 369.161 -3.05176e-05 373.972 -3.05176e-05 373.972L706 382Z" fill="#3F3D56"/>
<path d="M375.405 15.3003V355.762C375.4 359.818 373.254 363.706 369.439 366.573C365.625 369.44 360.453 371.051 355.061 371.052H171.278C168.607 371.055 165.96 370.662 163.491 369.895C161.021 369.128 158.777 368.002 156.887 366.582C154.998 365.162 153.499 363.475 152.477 361.618C151.456 359.761 150.931 357.771 150.934 355.762V15.3003C150.934 13.291 151.46 11.3013 152.482 9.44495C153.505 7.58856 155.003 5.90179 156.892 4.481C158.782 3.0602 161.024 1.93319 163.493 1.16434C165.961 0.395491 168.607 -0.00014261 171.278 3.12354e-05H198.781V2.6525C198.781 5.99359 200.545 9.19804 203.685 11.561C206.826 13.924 211.086 15.2521 215.529 15.2531H309.002C312.577 15.2588 316.06 14.3967 318.933 12.7949C319.513 12.4773 320.064 12.1298 320.581 11.7549C322.217 10.58 323.519 9.16733 324.407 7.60264C325.296 6.03796 325.752 4.35386 325.749 2.6525V3.12354e-05H355.061C357.733 -0.000584364 360.378 0.39475 362.847 1.16344C365.316 1.93214 367.559 3.05912 369.448 4.48001C371.337 5.9009 372.836 7.58783 373.858 9.44443C374.88 11.301 375.406 13.2909 375.405 15.3003Z" fill="#3F3D56"/>
<path d="M202.133 60.4028C204.833 60.4028 207.022 58.7567 207.022 56.7261C207.022 54.6955 204.833 53.0494 202.133 53.0494C199.434 53.0494 197.245 54.6955 197.245 56.7261C197.245 58.7567 199.434 60.4028 202.133 60.4028Z" fill="#F2F2F2"/>
<path d="M320.581 11.7549C320.064 12.1298 319.513 12.4773 318.933 12.7949C324.92 20.7191 333.032 27.6212 342.753 33.0634C352.474 38.5056 363.593 42.3692 375.405 44.4092V42.7705C363.912 40.7315 353.107 36.9226 343.67 31.5842C334.234 26.2459 326.372 19.494 320.581 11.7549Z" fill="#D96914"/>
<path d="M278.81 15.253H276.519C284.652 30.7928 298.064 44.4553 315.417 54.8753C332.77 65.2952 353.455 72.1076 375.405 74.6316V73.0033C354.026 70.5064 333.879 63.8692 316.943 53.744C300.008 43.6188 286.866 30.354 278.81 15.253Z" fill="#D96914"/>
<path d="M236.613 15.253H234.406C252.865 63.4387 308.562 99.3074 375.405 105.132V103.53C309.721 97.7318 254.981 62.5458 236.613 15.253Z" fill="#D96914"/>
<path d="M186.07 83.9452H184.798V82.9882H184.55V83.9452H183.277V84.1322H184.55V85.0892H184.798V84.1322H186.07V83.9452Z" fill="#F2F2F2"/>
<path d="M271.973 36.1482H270.7V35.1912H270.452V36.1482H269.179V36.3352H270.452V37.2922H270.7V36.3352H271.973V36.1482Z" fill="#F2F2F2"/>
<path d="M198.641 121.763H197.369V120.806H197.121V121.763H195.848V121.95H197.121V122.907H197.369V121.95H198.641V121.763Z" fill="#F2F2F2"/>
<path d="M257.306 93.9248H256.034V92.9678H255.786V93.9248H254.513V94.1118H255.786V95.0688H256.034V94.1118H257.306V93.9248Z" fill="#F2F2F2"/>
<path d="M341.113 111.258H339.841V110.301H339.593V111.258H338.32V111.445H339.593V112.402H339.841V111.445H341.113V111.258Z" fill="#F2F2F2"/>
<path d="M326.448 67.7562C327.99 67.7562 329.241 66.8156 329.241 65.6552C329.241 64.4949 327.99 63.5543 326.448 63.5543C324.905 63.5543 323.654 64.4949 323.654 65.6552C323.654 66.8156 324.905 67.7562 326.448 67.7562Z" fill="#FF6584"/>
<path d="M226.368 114.923L224.782 115.107C225.278 117.491 225.669 119.928 225.956 122.339L227.555 122.234C227.269 119.792 226.871 117.334 226.368 114.923Z" fill="#E6E6E6"/>
<path d="M222.031 100.563L220.494 100.915C221.423 103.226 222.254 105.595 222.96 107.953L224.531 107.685C223.812 105.3 222.967 102.905 222.031 100.563Z" fill="#E6E6E6"/>
<path d="M215.11 86.7909L213.65 87.2952C214.991 89.4959 216.248 91.7545 217.386 94.013L218.888 93.5876C217.736 91.3028 216.472 89.0127 215.11 86.7909Z" fill="#E6E6E6"/>
<path d="M205.751 73.8805L204.396 74.5265C206.121 76.5645 207.777 78.676 209.313 80.7927L210.724 80.2149C209.173 78.072 207.497 75.9394 205.751 73.8805Z" fill="#E6E6E6"/>
<path d="M194.116 62.0468L192.894 62.8295C194.975 64.6678 197 66.5902 198.914 68.5336L200.199 67.814C198.271 65.8496 196.225 63.9062 194.116 62.0468Z" fill="#E6E6E6"/>
<path d="M180.441 51.5105L179.373 52.4087C181.775 54.0212 184.129 55.7177 186.371 57.4457L187.523 56.6001C185.253 54.851 182.872 53.1387 180.441 51.5105Z" fill="#E6E6E6"/>
<path d="M164.993 42.4658L164.092 43.4638C166.76 44.8136 169.4 46.2528 171.935 47.7392L172.927 46.7885C170.357 45.2863 167.689 43.8315 164.993 42.4658Z" fill="#E6E6E6"/>
<path d="M150.934 36.1839V37.5496C152.603 38.2061 154.259 38.8942 155.879 39.598L156.682 38.5528C154.796 37.7334 152.88 36.9437 150.934 36.1839Z" fill="#E6E6E6"/>
<path d="M226.005 228.377C226.265 227.202 226.504 226.003 226.713 224.813L228.305 224.972C228.093 226.175 227.852 227.387 227.589 228.575L226.005 228.377Z" fill="#E6E6E6"/>
<path d="M221.529 242.547L223.063 242.907C224.026 240.573 224.898 238.182 225.653 235.799L224.089 235.521C223.341 237.878 222.485 240.239 221.529 242.547Z" fill="#E6E6E6"/>
<path d="M214.516 256.115L215.973 256.629C217.358 254.419 218.655 252.141 219.831 249.862L218.333 249.422C217.17 251.677 215.887 253.93 214.516 256.115Z" fill="#E6E6E6"/>
<path d="M205.08 268.844L206.426 269.501C208.202 267.453 209.906 265.33 211.493 263.193L210.092 262.602C208.527 264.715 206.836 266.814 205.08 268.844Z" fill="#E6E6E6"/>
<path d="M193.405 280.472L194.622 281.265C196.758 279.412 198.83 277.484 200.793 275.534L199.507 274.811C197.571 276.738 195.521 278.642 193.405 280.472Z" fill="#E6E6E6"/>
<path d="M179.734 290.79L180.791 291.698C183.247 290.087 185.648 288.387 187.943 286.66L186.807 285.804C184.539 287.514 182.158 289.19 179.734 290.79Z" fill="#E6E6E6"/>
<path d="M164.332 299.609L165.219 300.62C167.931 299.273 170.624 297.838 173.208 296.359L172.237 295.395C169.678 296.861 167.018 298.28 164.332 299.609Z" fill="#E6E6E6"/>
<path d="M156.864 304.456C154.922 305.281 152.939 306.079 150.934 306.836V305.481C152.666 304.819 154.384 304.12 156.067 303.411L156.864 304.456Z" fill="#E6E6E6"/>
<path d="M226.476 129.79L228.081 129.768C228.111 130.987 228.113 132.213 228.088 133.411L226.483 133.393C226.507 132.208 226.505 130.996 226.476 129.79Z" fill="#E6E6E6"/>
<path d="M157.988 158.43H322.257C334.482 158.43 346.206 162.082 354.851 168.583C363.495 175.084 368.351 183.902 368.351 193.096V197.684H204.082C191.857 197.684 180.133 194.032 171.489 187.531C162.844 181.03 157.988 172.212 157.988 163.018V158.43Z" fill="white"/>
<path d="M267.007 370.569C266.847 370.372 263.068 365.627 261.758 355.772C260.556 346.731 261.329 331.492 271.837 310.235C291.745 269.964 267.249 237.471 266.999 237.148L268.207 236.62C268.271 236.702 274.592 244.987 278.326 258.178C283.26 275.668 281.463 293.852 273.147 310.601C253.272 350.803 268.048 369.834 268.199 370.022L267.007 370.569Z" fill="#F2F2F2"/>
<path d="M259.222 234.783C264.237 234.783 268.302 231.726 268.302 227.955C268.302 224.184 264.237 221.127 259.222 221.127C254.208 221.127 250.143 224.184 250.143 227.955C250.143 231.726 254.208 234.783 259.222 234.783Z" fill="#D96914"/>
<path d="M287.857 259.995C292.871 259.995 296.936 256.938 296.936 253.167C296.936 249.395 292.871 246.338 287.857 246.338C282.842 246.338 278.777 249.395 278.777 253.167C278.777 256.938 282.842 259.995 287.857 259.995Z" fill="#F2F2F2"/>
<path d="M268.302 276.802C273.316 276.802 277.381 273.745 277.381 269.974C277.381 266.203 273.316 263.146 268.302 263.146C263.287 263.146 259.222 266.203 259.222 269.974C259.222 273.745 263.287 276.802 268.302 276.802Z" fill="#D96914"/>
<path d="M292.047 290.984C297.061 290.984 301.126 287.927 301.126 284.156C301.126 280.385 297.061 277.328 292.047 277.328C287.033 277.328 282.968 280.385 282.968 284.156C282.968 287.927 287.033 290.984 292.047 290.984Z" fill="#D96914"/>
<path d="M261.318 313.044C266.332 313.044 270.397 309.987 270.397 306.216C270.397 302.445 266.332 299.388 261.318 299.388C256.303 299.388 252.238 302.445 252.238 306.216C252.238 309.987 256.303 313.044 261.318 313.044Z" fill="#F2F2F2"/>
<path d="M272.492 370.821C272.492 370.821 263.413 354.013 290.65 341.407L272.492 370.821Z" fill="#F2F2F2"/>
<path d="M261.326 370.516C261.326 370.516 257.194 352.642 225.213 352.795L261.326 370.516Z" fill="#F2F2F2"/>
<path opacity="0.2" d="M225.18 220.076C256.037 220.076 281.052 201.264 281.052 178.057C281.052 154.85 256.037 136.038 225.18 136.038C194.324 136.038 169.309 154.85 169.309 178.057C169.309 201.264 194.324 220.076 225.18 220.076Z" fill="#D96914"/>
<path opacity="0.2" d="M225.18 207.648C246.911 207.648 264.527 194.4 264.527 178.057C264.527 161.714 246.911 148.466 225.18 148.466C203.45 148.466 185.834 161.714 185.834 178.057C185.834 194.4 203.45 207.648 225.18 207.648Z" fill="#D96914"/>
<path d="M225.18 197.587C239.522 197.587 251.149 188.843 251.149 178.057C251.149 167.271 239.522 158.527 225.18 158.527C210.839 158.527 199.212 167.271 199.212 178.057C199.212 188.843 210.839 197.587 225.18 197.587Z" fill="#D96914"/>
<path d="M229.902 173.845C229.902 173.245 229.701 172.656 229.316 172.131C228.932 171.606 228.377 171.163 227.704 170.842C227.03 170.522 226.26 170.335 225.465 170.299C224.669 170.263 223.875 170.379 223.155 170.636C222.435 170.893 221.814 171.283 221.348 171.769C220.883 172.256 220.589 172.823 220.493 173.418C220.397 174.013 220.504 174.616 220.802 175.172C221.1 175.728 221.58 176.218 222.198 176.596L220.459 185.751H229.902L228.163 176.596C228.707 176.264 229.145 175.844 229.446 175.368C229.747 174.892 229.903 174.372 229.902 173.845Z" fill="white"/>
<path d="M486.157 27.9954C486.157 27.9954 470.581 17.4933 449.635 37.2858C428.688 57.0783 395.926 66.7726 388.407 74.4472C388.407 74.4472 419.558 64.7529 430.3 60.7136C441.041 56.6743 440.504 57.4822 440.504 57.4822C440.504 57.4822 426.003 65.1568 423.317 72.8315C420.632 80.5061 422.78 86.969 417.947 94.6436C413.113 102.318 510.326 99.8947 510.326 99.8947C510.326 99.8947 519.993 87.373 517.308 74.4472C514.622 61.5215 516.234 29.6111 486.157 27.9954Z" fill="#2F2E41"/>
<path d="M456.697 61.0342C456.697 61.0342 460.084 78.8645 445.568 82.8672C431.053 86.8699 436.375 92.3281 436.375 92.3281L458.148 100.334L481.373 94.8753L489.114 86.1421C489.114 86.1421 476.534 83.9588 479.921 77.4089C483.308 70.859 484.276 68.6757 484.276 68.6757L456.697 61.0342Z" fill="#FFB9B9"/>
<path opacity="0.1" d="M456.697 61.0342C456.697 61.0342 460.084 78.8645 445.568 82.8672C431.053 86.8699 436.375 92.3281 436.375 92.3281L458.148 100.334L481.373 94.8753L489.114 86.1421C489.114 86.1421 476.534 83.9588 479.921 77.4089C483.308 70.859 484.276 68.6757 484.276 68.6757L456.697 61.0342Z" fill="black"/>
<path d="M517.661 111.978C517.661 111.978 514.274 145.455 515.241 146.911C516.209 148.366 515.241 198.946 515.241 198.946C515.241 198.946 522.015 226.237 513.306 227.692C504.597 229.148 506.532 197.126 506.532 197.126L497.823 154.916L498.791 113.069L517.661 111.978Z" fill="#FFB9B9"/>
<path opacity="0.1" d="M517.661 111.978C517.661 111.978 514.274 145.455 515.241 146.911C516.209 148.366 515.241 198.946 515.241 198.946C515.241 198.946 522.015 226.237 513.306 227.692C504.597 229.148 506.532 197.126 506.532 197.126L497.823 154.916L498.791 113.069L517.661 111.978Z" fill="black"/>
<path d="M423.312 212.773C423.312 212.773 407.345 258.259 407.829 280.455C408.313 302.652 414.602 333.582 414.602 333.582C414.602 333.582 415.57 347.046 414.119 348.502C412.667 349.957 421.376 356.143 421.376 356.143L430.569 352.14L433.956 349.229V346.682C433.956 346.682 428.634 334.31 432.988 324.485C437.343 314.66 439.762 289.916 435.408 282.275L465.406 215.321L423.312 212.773Z" fill="#FFB9B9"/>
<path d="M422.344 350.321C422.344 350.321 416.538 344.863 412.667 346.682C408.796 348.502 402.506 360.874 402.506 360.874C402.506 360.874 380.734 376.521 396.217 377.248C411.699 377.976 418.473 373.973 420.409 371.062C422.344 368.151 440.246 360.51 440.246 360.51C440.246 360.51 438.311 346.682 435.408 346.318C432.505 345.954 428.15 351.776 428.15 351.776L422.344 350.321Z" fill="#2F2E41"/>
<path d="M476.05 215.684V260.806C476.106 266.281 476.591 271.748 477.502 277.181C478.953 285.186 469.276 344.863 469.276 344.863L470.244 355.415L482.34 354.688L483.792 345.591L501.21 305.563C501.21 305.563 507.016 281.183 504.113 272.086C501.21 262.989 519.112 204.768 519.112 204.768L476.05 215.684Z" fill="#FFB9B9"/>
<path d="M466.373 352.868L469.957 352.282C469.957 352.282 472.663 347.774 476.05 348.866C478.434 349.692 480.692 350.71 482.785 351.9L484.276 353.96C484.276 353.96 487.662 359.418 492.017 363.057C496.372 366.696 501.21 374.701 493.952 375.429C486.695 376.157 477.018 376.521 474.115 374.701C471.212 372.882 473.147 369.971 470.244 369.243C467.341 368.515 464.922 366.332 465.406 365.604C465.89 364.876 466.373 352.868 466.373 352.868Z" fill="#2F2E41"/>
<path d="M476.05 73.5677C487.926 73.5677 497.554 66.3271 497.554 57.3954C497.554 48.4637 487.926 41.2231 476.05 41.2231C464.174 41.2231 454.547 48.4637 454.547 57.3954C454.547 66.3271 464.174 73.5677 476.05 73.5677Z" fill="#FFB9B9"/>
<path d="M435.408 85.7782L441.799 84.1002C441.799 84.1002 439.278 87.2338 452.826 89.0532C466.373 90.8726 480.403 91.5167 486.694 85.5545C486.694 85.5545 489.114 84.6866 492.501 87.2338C495.888 89.781 497.823 89.0532 497.823 89.0532L495.404 98.5142L490.565 115.981L484.276 129.08L466.373 126.169L447.02 115.617L439.762 101.425V88.3254L435.408 85.7782Z" fill="#D96914"/>
<path d="M494.436 90.8726L499.275 88.3254C499.275 88.3254 515.725 90.5087 516.693 96.3308L504.113 114.525C506.679 119.587 506.505 125.205 503.629 130.172C498.791 138.541 499.275 140.361 499.275 140.361L495.888 151.277L434.44 154.916C434.44 154.916 432.021 150.549 431.053 149.822C430.085 149.094 430.085 146.547 431.053 146.547C432.021 146.547 431.053 145.455 430.085 144.363C429.118 143.272 428.634 142.908 430.085 141.452C431.537 139.997 427.666 126.897 427.666 126.897V112.706L411.216 96.3308C411.216 96.3308 417.022 89.7809 419.925 89.0532C422.828 88.3254 436.637 85.4553 436.637 85.4553L439.762 88.9156L444.117 115.253L450.407 131.264L476.89 127.879L487.179 114.889L493.952 99.6057L494.436 90.8726Z" fill="#D96914"/>
<path d="M512.822 94.1475L516.693 96.3308C516.693 96.3308 520.08 116.708 519.112 118.164C518.144 119.619 501.21 121.075 500.726 120.347C500.242 119.619 512.822 94.1475 512.822 94.1475Z" fill="#D96914"/>
<path d="M432.988 83.9588L437.827 107.975C437.827 107.975 433.472 143.636 434.44 150.913L435.408 153.097C435.408 153.097 433.472 152.369 432.988 153.824C432.504 155.28 432.988 160.01 432.988 160.01C432.988 160.01 430.085 162.194 429.118 174.202C428.15 186.21 416.538 214.957 420.892 216.048C425.247 217.14 451.374 222.598 465.406 221.507C479.437 220.415 529.756 207.679 529.273 204.404C528.789 201.129 504.597 154.916 504.597 154.916C504.597 154.916 500.242 149.458 500.242 148.73C500.242 148.002 506.048 145.091 504.597 142.18C503.145 139.269 495.404 108.703 495.404 108.703L500.726 86.8699L493.468 85.4143L488.146 106.52C488.146 106.52 467.341 114.161 445.568 107.247L440.73 82.5033L432.988 83.9588Z" fill="#2F2E41"/>
<path d="M456.267 45.789C456.267 45.789 492.072 64.347 501.749 55.9777C511.425 47.6084 484.814 40.3308 484.814 40.3308L462.557 38.5113L456.267 45.789Z" fill="#2F2E41"/>
<path d="M400.637 243.209C404.322 245.272 408.881 246.254 413.46 245.969C418.039 245.685 422.322 244.155 425.508 241.666C428.694 239.176 430.563 235.898 430.765 232.446C430.968 228.995 429.489 225.606 426.607 222.915C423.724 220.225 419.636 218.417 415.108 217.831C410.581 217.245 405.924 217.922 402.012 219.733C398.1 221.544 395.2 224.367 393.857 227.671C392.514 230.975 392.819 234.534 394.715 237.681L345.334 268.603L338.759 262.735L335.805 264.221L332.518 261.286L335.219 259.574L331.931 256.64L327.729 259.303L329.752 261.108L325.25 263.961L323.227 262.156L316.624 266.34L319.659 269.048L322.06 267.527L325.348 270.461L322.346 272.363L328.415 277.781L321.212 282.345L328.546 288.891L400.637 243.209ZM412.966 222.466C415.427 222.624 417.771 223.328 419.7 224.487C421.63 225.647 423.058 227.211 423.806 228.982C424.553 230.752 424.586 232.649 423.9 234.434C423.213 236.218 421.839 237.81 419.95 239.007C418.061 240.203 415.743 240.952 413.288 241.158C410.833 241.364 408.352 241.018 406.159 240.164C403.966 239.309 402.159 237.985 400.967 236.358C399.774 234.731 399.25 232.875 399.46 231.024C399.742 228.543 401.324 226.247 403.856 224.642C406.389 223.037 409.666 222.254 412.966 222.466V222.466Z" fill="#D96914"/>
<path d="M407.829 116.344C407.829 116.344 411.216 149.822 410.248 151.277C409.28 152.733 410.248 203.312 410.248 203.312C410.248 203.312 403.474 230.604 412.183 232.059C420.892 233.515 418.957 201.493 418.957 201.493L427.666 159.283L426.698 117.436L407.829 116.344Z" fill="#FFB9B9"/>
<path d="M415.086 95.2392L411.216 96.3308C411.216 96.3308 403.958 119.255 405.893 119.255C407.829 119.255 431.053 121.439 431.053 120.711C431.053 119.983 426.698 102.153 426.698 102.153L415.086 95.2392Z" fill="#D96914"/>
</g>
<defs>
<clipPath id="clip0">
<rect width="706" height="382" fill="white"/>
</clipPath>
</defs>
</svg>
